<svg width="1015" height="526" viewBox="0 0 1015 526" fill="none" xmlns="http://www.w3.org/2000/svg">
<g clip-path="url(#clip0)">
<path d="M443.078 6.14067L361.35 295.153L873.69 440.035L955.419 151.023L443.078 6.14067Z" fill="#3F3D56"/>
<path d="M451.929 22.4719C454.272 22.4719 456.172 20.5722 456.172 18.2287C456.172 15.8852 454.272 13.9855 451.929 13.9855C449.585 13.9855 447.686 15.8852 447.686 18.2287C447.686 20.5722 449.585 22.4719 451.929 22.4719Z" fill="#AD9474"/>
<path d="M464.995 26.1667C467.338 26.1667 469.238 24.267 469.238 21.9235C469.238 19.5801 467.338 17.6803 464.995 17.6803C462.651 17.6803 460.751 19.5801 460.751 21.9235C460.751 24.267 462.651 26.1667 464.995 26.1667Z" fill="#AD9474"/>
<path d="M478.061 29.8616C480.404 29.8616 482.304 27.9618 482.304 25.6183C482.304 23.2749 480.404 21.3751 478.061 21.3751C475.717 21.3751 473.817 23.2749 473.817 25.6183C473.817 27.9618 475.717 29.8616 478.061 29.8616Z" fill="#AD9474"/>
<path d="M714.983 189.53C708.125 188.233 701.069 188.399 694.28 190.018C696.256 183.23 696.756 176.096 695.743 169.098C688.751 171.629 682.424 175.712 677.237 181.041C675.608 173.785 672.356 166.993 667.725 161.175C663.198 166.607 659.888 172.945 658.017 179.764C653.08 174.829 647.157 170.992 640.635 168.505C640.635 168.505 637.545 184.221 644.984 197.117C651.606 208.595 664.328 213.966 667.047 215.009L667.111 215.086L667.145 215.047C667.421 215.152 667.576 215.205 667.576 215.205C667.576 215.205 667.634 214.903 667.715 214.364C667.764 214.304 667.813 214.242 667.867 214.175C667.878 214.261 667.888 214.339 667.898 214.416C667.684 214.917 667.576 215.205 667.576 215.205C667.576 215.205 667.735 215.24 668.025 215.296L668.034 215.347L668.128 215.315C670.992 215.85 684.642 217.937 696.294 211.626C709.385 204.536 714.983 189.53 714.983 189.53Z" fill="#AD9474"/>
<path d="M689.592 149.384C695.685 149.384 700.624 144.445 700.624 138.352C700.624 132.259 695.685 127.319 689.592 127.319C683.499 127.319 678.56 132.259 678.56 138.352C678.56 144.445 683.499 149.384 689.592 149.384Z" fill="#AD9474"/>
<path d="M828.117 281.591L496.569 187.835L494.529 195.048L826.077 288.805L828.117 281.591Z" fill="#AD9474"/>
<path d="M574.603 248.706L517.439 232.541L501.275 289.705L558.438 305.87L574.603 248.706Z" fill="#AD9474"/>
<path d="M680.764 278.727L623.6 262.562L607.435 319.725L664.599 335.89L680.764 278.727Z" fill="#AD9474"/>
<path d="M786.924 308.747L729.761 292.582L713.596 349.746L770.759 365.911L786.924 308.747Z" fill="#AD9474"/>
<path d="M547.855 315.224L505.391 303.216L504.006 308.115L546.47 320.124L547.855 315.224Z" fill="#AD9474"/>
<path d="M654.016 345.244L611.552 333.236L610.166 338.136L652.63 350.144L654.016 345.244Z" fill="#AD9474"/>
<path d="M760.177 375.265L717.712 363.257L716.327 368.157L758.791 380.165L760.177 375.265Z" fill="#AD9474"/>
<path d="M289.6 407C446.449 407 573.6 402.299 573.6 396.5C573.6 390.701 446.449 386 289.6 386C132.751 386 5.6001 390.701 5.6001 396.5C5.6001 402.299 132.751 407 289.6 407Z" fill="#D0CDE1"/>
<path d="M794.128 526C916.183 526 1015.13 521.299 1015.13 515.5C1015.13 509.701 916.183 505 794.128 505C672.073 505 573.128 509.701 573.128 515.5C573.128 521.299 672.073 526 794.128 526Z" fill="#D0CDE1"/>
<path d="M685.736 434H749.494V460.664H712.399V487.327H749.497V513.989H685.736V434ZM762.247 434H826.007V457.186H788.911V461.822H826.007V515.15H762.249V490.802H799.345V486.165H762.245V434H762.247ZM838.76 434H902.519V457.186H865.423V461.822H902.519V515.15H838.76V490.802H875.856V486.165H838.761V434H838.76Z" fill="#3F3D56"/>
<path d="M128.49 312H154.793V337.986H178.854V312H205.157V390.693H178.855V364.342H154.794V390.693H128.492V312H128.49ZM239.744 338.096H216.592V312H289.218V338.096H266.051V390.693H239.749V338.096H239.744ZM300.743 312H328.169L345.039 339.651L361.893 312H389.33V390.693H363.135V351.688L345.039 379.668H344.585L326.478 351.688V390.693H300.743V312ZM402.42 312H428.73V364.682H465.718V390.693H402.418V312H402.42Z" fill="#3F3D56"/>
<path d="M82.034 366.091L79.876 390.558L97.146 389.118V368.25L82.034 366.091Z" fill="#FFB8B8"/>
<path d="M66.2028 366.091L68.3618 390.558L51.0918 389.118V368.25L66.2028 366.091Z" fill="#FFB8B8"/>
<path d="M111.538 178.276C111.538 178.276 117.295 212.816 117.295 217.854C117.295 222.891 115.136 255.273 111.538 261.749C107.94 268.226 107.22 271.104 108.659 273.982C110.099 276.861 109.379 276.141 108.659 278.3C107.94 280.459 106.501 279.739 108.659 282.618C109.541 283.885 110.013 285.392 110.013 286.935C110.013 288.479 109.541 289.986 108.659 291.253C107.22 293.412 111.538 351.699 105.781 356.017C100.024 360.334 98.5849 374.726 98.5849 374.726L79.8754 372.568V356.736C79.8754 356.736 75.5578 345.223 78.4362 338.027C81.3146 330.831 82.7538 292.692 82.7538 292.692C82.7538 292.692 82.0342 289.094 82.7538 286.935C83.4734 284.776 82.7538 283.337 81.3146 282.618C79.8754 281.898 79.1558 279.02 79.1558 279.02L76.997 226.489L68.3618 278.3C68.3618 278.3 76.997 348.821 68.3618 358.176V374.726H49.6522L52.5306 356.736C52.5306 356.736 46.7738 340.186 49.6522 336.588C52.5306 332.99 41.017 275.422 42.4562 273.263C43.8954 271.104 43.1758 270.384 42.4562 268.945C41.7366 267.506 39.5778 266.067 40.2974 264.628C41.017 263.188 40.2974 260.31 40.2974 260.31C40.2974 260.31 26.625 192.668 33.1014 186.191C39.5778 179.715 111.538 178.276 111.538 178.276Z" fill="#2F2E41"/>
<path d="M84.1933 381.203C84.1933 381.203 85.6325 374.301 97.1461 376.673C97.1461 376.673 100.025 382.642 100.025 385.52C100.025 388.399 102.903 407.828 102.903 407.828C102.903 407.828 114.417 427.257 100.025 427.257C85.6325 427.257 80.5953 422.22 79.8757 417.183C79.1561 412.146 80.5953 410.706 77.7169 408.548C74.8385 406.389 73.3993 406.389 74.1189 403.51C74.8385 400.632 76.2777 386.24 76.2777 386.24C76.2777 386.24 76.9973 375.446 80.9551 378.324L84.9129 381.203" fill="#2F2E41"/>
<path d="M64.0444 381.203C64.0444 381.203 62.6052 374.301 51.0916 376.673C51.0916 376.673 48.2132 382.642 48.2132 385.52C48.2132 388.399 45.3348 407.828 45.3348 407.828C45.3348 407.828 33.8212 427.257 48.2132 427.257C62.6052 427.257 67.6424 422.22 68.362 417.183C69.0816 412.146 67.6424 410.706 70.5208 408.548C73.3992 406.389 74.8384 406.389 74.1188 403.51C73.3992 400.632 71.96 386.24 71.96 386.24C71.96 386.24 71.2404 375.446 67.2826 378.324L63.3248 381.203" fill="#2F2E41"/>
<path d="M84.9126 45.8693C95.643 45.8693 104.342 37.1706 104.342 26.4401C104.342 15.7097 95.643 7.01093 84.9126 7.01093C74.1821 7.01093 65.4834 15.7097 65.4834 26.4401C65.4834 37.1706 74.1821 45.8693 84.9126 45.8693Z" fill="#FFB8B8"/>
<path d="M69.0817 29.3185C69.0817 29.3185 61.1661 60.2613 59.7269 60.9809C58.2877 61.7005 92.8285 64.5789 92.8285 64.5789C92.8285 64.5789 84.1933 37.9537 92.8285 33.6361L69.0817 29.3185Z" fill="#FFB8B8"/>
<path d="M64.0262 48.1749L64.0252 48.1709L40.2974 64.5789L44.615 193.387C44.615 193.387 76.2774 189.789 83.4734 190.509C90.6694 191.229 113.697 184.032 113.697 184.032L103.61 62.9967C103.413 60.6317 102.377 58.4151 100.688 56.7477C98.999 55.0803 96.7694 54.072 94.402 53.9051L90.0803 53.6003C90.0803 53.6003 85.763 64.2896 72.7734 58.7749C70.5833 57.8223 68.6494 56.3655 67.1293 54.5234C65.6092 52.6813 64.5459 50.506 64.0262 48.1749Z" fill="#AD9474"/>
<path d="M64.6004 47L35.2606 60.9809L29.5038 143.735C29.5038 143.735 17.9902 193.387 27.345 207.779C36.6998 222.171 52.531 223.61 52.531 223.61C52.531 223.61 73.3994 140.856 67.6426 112.792C61.8858 84.7277 64.6004 47 64.6004 47Z" fill="#3F3D56"/>
<path d="M9.35497 171.799V182.593C9.35497 182.593 5.03737 206.34 18.7098 205.621C32.3822 204.901 25.9058 179.715 25.9058 179.715L21.5882 171.799H9.35497Z" fill="#FFB8B8"/>
<path d="M136.005 193.387L134.565 205.62C134.565 205.62 141.761 230.087 128.089 230.806C114.417 231.526 124.341 205.771 124.341 205.771L128.809 191.948L136.005 193.387Z" fill="#FFB8B8"/>
<path d="M89.6475 51.0854C102.759 54.315 114.91 60.6311 125.086 69.5075L125.21 69.6161L115.136 122.866L113.697 142.296C113.697 142.296 140.322 237.283 109.379 223.61C109.379 223.61 82.754 140.856 86.352 102.718C89.95 64.5789 89.6475 51.0854 89.6475 51.0854Z" fill="#3F3D56"/>
<path d="M115.855 68.8965C116.575 68.1769 125.21 69.8965 125.21 69.8965C125.21 69.8965 141.041 125.745 141.041 135.1C141.041 144.454 143.2 197.705 143.2 197.705L124.205 199.62L108.83 125.633L115.855 68.8965Z" fill="#3F3D56"/>
<path d="M40.2976 60.9809H35.2604C35.2604 60.9809 20.8684 66.7377 20.1488 73.2141C19.4292 79.6905 0 145.174 0 145.174L5.0372 178.276L23.7468 175.397L27.3448 138.698L46.0544 98.4001L40.2976 60.9809Z" fill="#3F3D56"/>
<path d="M81.138 31.8626L81.8829 26.6697C82.0565 25.4594 82.7649 23.8679 83.9425 24.1971C84.944 24.4771 87.1262 25.3345 87.4916 25.0757C88.8598 24.1064 90.9302 25.8012 92.369 24.9402C92.9718 24.5795 93.365 23.8066 94.0656 23.755C94.5357 23.785 94.9786 23.9857 95.3111 24.3193C96.2451 25.1315 97.3456 25.7293 98.5352 26.0708C99.1321 26.2333 99.7616 26.2332 100.358 26.0705C100.955 25.9079 101.498 25.5885 101.929 25.1456C102.082 24.9096 102.288 24.7126 102.53 24.5702C102.814 24.4883 103.117 24.5022 103.393 24.6099L107.069 25.6108C107.61 23.6505 107.721 21.5966 107.394 19.5894C107.068 17.5823 106.313 15.6692 105.179 13.981C103.688 11.9567 101.88 10.1861 99.8248 8.7373C97.5482 7.00538 95.1988 5.37638 92.7765 3.8503C90.2085 2.03333 87.2935 0.765151 84.2135 0.124908C81.1135 -0.345842 77.6424 0.496373 75.6925 2.9519C74.7753 2.28809 74.0859 1.3568 73.7188 0.285735C73.5002 0.484655 73.3279 0.729154 73.2141 1.00195C73.1003 1.27475 73.0477 1.5692 73.0601 1.86453C73.0726 2.15986 73.1497 2.44886 73.286 2.71113C73.4223 2.97341 73.6146 3.20257 73.8491 3.38241L70.7401 1.39706C69.8661 2.31473 71.5737 3.97875 70.8291 5.00416C70.6038 5.25778 70.3149 5.44648 69.9921 5.55066C68.304 6.20862 66.7568 7.18243 65.4334 8.41991C63.7579 10.3287 62.5312 12.5886 61.8432 15.0335C59.9906 20.3484 58.6441 26.4436 61.2763 31.4188C61.5747 31.9828 65.5137 41.2923 66.0385 41.6553C67.8125 42.8825 66.6577 39.9127 67.9288 41.6553C68.9256 43.0219 68.739 37.7916 70.2205 38.9396C70.8013 39.3552 71.4901 39.5934 72.2035 39.6255C72.9169 39.6576 73.6244 39.4822 74.2401 39.1204C74.8543 38.6945 74.6564 36.3292 74.325 34.1571C74.2616 33.7434 74.3007 33.3204 74.4388 32.9253C74.5769 32.5302 74.8098 32.175 75.1171 31.8908C75.4244 31.6066 75.7967 31.4022 76.2014 31.2954C76.6061 31.1886 77.0308 31.1827 77.4383 31.2782C79.2834 31.7122 81.1063 32.0831 81.138 31.8626Z" fill="#2F2E41"/>
<path opacity="0.2" d="M117.655 134.02L125.57 199.504H120.533L117.655 134.02Z" fill="black"/>
<path opacity="0.2" d="M34.1812 108.834L30.1792 134.02L37.7792 108.834H35.6202H34.1812Z" fill="black"/>
</g>
<defs>
<clipPath id="clip0">
<rect width="1015.13" height="526" fill="white"/>
</clipPath>
</defs>
</svg>
