<svg width="165" height="30" viewBox="0 0 165 30" fill="none" xmlns="http://www.w3.org/2000/svg">
<path d="M0.4 14.96C0.4 12.16 0.96 9.68 2.08 7.52C3.2 5.33333 4.76 3.62667 6.76 2.4C8.76 1.17333 11.0133 0.559999 13.52 0.559999C16.8 0.559999 19.5067 1.32 21.64 2.84C23.8 4.36 25.3733 6.46667 26.36 9.16H25.56C24.7067 6.78667 23.2533 4.88 21.2 3.44C19.1467 2 16.5867 1.28 13.52 1.28C11.2267 1.28 9.14667 1.84 7.28 2.96C5.41333 4.05333 3.93333 5.64 2.84 7.72C1.77333 9.77333 1.24 12.1867 1.24 14.96C1.24 17.7067 1.77333 20.1067 2.84 22.16C3.93333 24.2133 5.41333 25.8 7.28 26.92C9.17333 28.0133 11.2533 28.56 13.52 28.56C16.5867 28.56 19.1467 27.8533 21.2 26.44C23.2533 25 24.7067 23.0933 25.56 20.72H26.36C25.3733 23.4133 23.8 25.52 21.64 27.04C19.5067 28.5333 16.8 29.28 13.52 29.28C11.0133 29.28 8.76 28.68 6.76 27.48C4.76 26.2533 3.2 24.56 2.08 22.4C0.96 20.2133 0.4 17.7333 0.4 14.96ZM44.5822 29.32C41.9955 29.32 39.6755 28.72 37.6222 27.52C35.5955 26.2933 34.0089 24.5867 32.8622 22.4C31.7155 20.2133 31.1422 17.7333 31.1422 14.96C31.1422 12.1867 31.7155 9.70667 32.8622 7.52C34.0089 5.33333 35.5955 3.64 37.6222 2.44C39.6755 1.21333 41.9955 0.599998 44.5822 0.599998C47.1689 0.599998 49.4755 1.21333 51.5022 2.44C53.5555 3.64 55.1555 5.33333 56.3022 7.52C57.4489 9.70667 58.0222 12.1867 58.0222 14.96C58.0222 17.7333 57.4489 20.2133 56.3022 22.4C55.1555 24.5867 53.5555 26.2933 51.5022 27.52C49.4755 28.72 47.1689 29.32 44.5822 29.32ZM44.5822 28.6C46.9289 28.6 49.0622 28.0533 50.9822 26.96C52.9022 25.84 54.4089 24.2533 55.5022 22.2C56.6222 20.12 57.1822 17.7067 57.1822 14.96C57.1822 12.2133 56.6222 9.81333 55.5022 7.76C54.4089 5.68 52.9022 4.09333 50.9822 3C49.0622 1.88 46.9289 1.32 44.5822 1.32C42.2355 1.32 40.1022 1.88 38.1822 3C36.2622 4.09333 34.7422 5.68 33.6222 7.76C32.5289 9.81333 31.9822 12.2133 31.9822 14.96C31.9822 17.7067 32.5289 20.12 33.6222 22.2C34.7422 24.2533 36.2622 25.84 38.1822 26.96C40.1022 28.0533 42.2355 28.6 44.5822 28.6ZM71.5419 29.28C69.7552 29.28 68.1952 28.96 66.8619 28.32C65.5552 27.68 64.5419 26.84 63.8219 25.8C63.1019 24.7333 62.6752 23.5867 62.5419 22.36H63.3419C63.4752 23.2933 63.8085 24.2267 64.3419 25.16C64.9019 26.0933 65.7685 26.8933 66.9419 27.56C68.1419 28.2267 69.6752 28.56 71.5419 28.56C73.0352 28.56 74.3552 28.28 75.5019 27.72C76.6485 27.1333 77.5285 26.36 78.1419 25.4C78.7552 24.44 79.0619 23.3733 79.0619 22.2C79.0619 20.68 78.7152 19.48 78.0219 18.6C77.3285 17.6933 76.4619 17.0267 75.4219 16.6C74.4085 16.1733 73.0352 15.7333 71.3019 15.28C69.4885 14.8 68.0352 14.32 66.9419 13.84C65.8485 13.36 64.9152 12.6267 64.1419 11.64C63.3952 10.6267 63.0219 9.26667 63.0219 7.56C63.0219 6.33333 63.3552 5.18667 64.0219 4.12C64.7152 3.02666 65.6885 2.16 66.9419 1.52C68.2219 0.879999 69.6752 0.559999 71.3019 0.559999C72.9552 0.559999 74.3819 0.853333 75.5819 1.44C76.7819 2.02667 77.7152 2.77333 78.3819 3.68C79.0752 4.56 79.5285 5.49333 79.7419 6.48H78.9419C78.7552 5.70667 78.3685 4.92 77.7819 4.12C77.1952 3.32 76.3552 2.65333 75.2619 2.12C74.1685 1.56 72.8485 1.28 71.3019 1.28C69.9419 1.28 68.6885 1.54667 67.5419 2.08C66.4219 2.58666 65.5152 3.32 64.8219 4.28C64.1552 5.21333 63.8219 6.30667 63.8219 7.56C63.8219 9.10667 64.1685 10.3467 64.8619 11.28C65.5819 12.1867 66.4619 12.8667 67.5019 13.32C68.5419 13.7467 69.9285 14.1867 71.6619 14.64C73.4752 15.12 74.9152 15.6 75.9819 16.08C77.0752 16.5333 77.9952 17.2533 78.7419 18.24C79.4885 19.2 79.8619 20.52 79.8619 22.2C79.8619 23.3733 79.5419 24.5067 78.9019 25.6C78.2885 26.6933 77.3552 27.5867 76.1019 28.28C74.8485 28.9467 73.3285 29.28 71.5419 29.28ZM110.347 1.64V29H109.547V3.6L98.2272 29H97.4272L86.0672 3.6V29H85.2672V1.64H86.0672L97.8272 27.96L109.547 1.64H110.347ZM129.582 29.32C126.996 29.32 124.676 28.72 122.622 27.52C120.596 26.2933 119.009 24.5867 117.862 22.4C116.716 20.2133 116.142 17.7333 116.142 14.96C116.142 12.1867 116.716 9.70667 117.862 7.52C119.009 5.33333 120.596 3.64 122.622 2.44C124.676 1.21333 126.996 0.599998 129.582 0.599998C132.169 0.599998 134.476 1.21333 136.502 2.44C138.556 3.64 140.156 5.33333 141.302 7.52C142.449 9.70667 143.022 12.1867 143.022 14.96C143.022 17.7333 142.449 20.2133 141.302 22.4C140.156 24.5867 138.556 26.2933 136.502 27.52C134.476 28.72 132.169 29.32 129.582 29.32ZM129.582 28.6C131.929 28.6 134.062 28.0533 135.982 26.96C137.902 25.84 139.409 24.2533 140.502 22.2C141.622 20.12 142.182 17.7067 142.182 14.96C142.182 12.2133 141.622 9.81333 140.502 7.76C139.409 5.68 137.902 4.09333 135.982 3C134.062 1.88 131.929 1.32 129.582 1.32C127.236 1.32 125.102 1.88 123.182 3C121.262 4.09333 119.742 5.68 118.622 7.76C117.529 9.81333 116.982 12.2133 116.982 14.96C116.982 17.7067 117.529 20.12 118.622 22.2C119.742 24.2533 121.262 25.84 123.182 26.96C125.102 28.0533 127.236 28.6 129.582 28.6ZM156.542 29.28C154.755 29.28 153.195 28.96 151.862 28.32C150.555 27.68 149.542 26.84 148.822 25.8C148.102 24.7333 147.675 23.5867 147.542 22.36H148.342C148.475 23.2933 148.809 24.2267 149.342 25.16C149.902 26.0933 150.769 26.8933 151.942 27.56C153.142 28.2267 154.675 28.56 156.542 28.56C158.035 28.56 159.355 28.28 160.502 27.72C161.649 27.1333 162.529 26.36 163.142 25.4C163.755 24.44 164.062 23.3733 164.062 22.2C164.062 20.68 163.715 19.48 163.022 18.6C162.329 17.6933 161.462 17.0267 160.422 16.6C159.409 16.1733 158.035 15.7333 156.302 15.28C154.489 14.8 153.035 14.32 151.942 13.84C150.849 13.36 149.915 12.6267 149.142 11.64C148.395 10.6267 148.022 9.26667 148.022 7.56C148.022 6.33333 148.355 5.18667 149.022 4.12C149.715 3.02666 150.689 2.16 151.942 1.52C153.222 0.879999 154.675 0.559999 156.302 0.559999C157.955 0.559999 159.382 0.853333 160.582 1.44C161.782 2.02667 162.715 2.77333 163.382 3.68C164.075 4.56 164.529 5.49333 164.742 6.48H163.942C163.755 5.70667 163.369 4.92 162.782 4.12C162.195 3.32 161.355 2.65333 160.262 2.12C159.169 1.56 157.849 1.28 156.302 1.28C154.942 1.28 153.689 1.54667 152.542 2.08C151.422 2.58666 150.515 3.32 149.822 4.28C149.155 5.21333 148.822 6.30667 148.822 7.56C148.822 9.10667 149.169 10.3467 149.862 11.28C150.582 12.1867 151.462 12.8667 152.502 13.32C153.542 13.7467 154.929 14.1867 156.662 14.64C158.475 15.12 159.915 15.6 160.982 16.08C162.075 16.5333 162.995 17.2533 163.742 18.24C164.489 19.2 164.862 20.52 164.862 22.2C164.862 23.3733 164.542 24.5067 163.902 25.6C163.289 26.6933 162.355 27.5867 161.102 28.28C159.849 28.9467 158.329 29.28 156.542 29.28Z" fill="white"/>
</svg>
